<svg width="2000" height="1625.36" xmlns="http://www.w3.org/2000/svg"><path d="M2000 192.4c-73.58 32.64-152.67 54.69-235.66 64.61 84.7-50.78 149.77-131.19 180.41-227.01-79.29 47.03-167.1 81.17-260.57 99.57C1609.34 49.82 1502.7 0 1384.68 0c-226.6 0-410.328 183.71-410.328 410.31 0 32.16 3.628 63.48 10.625 93.51C643.96 486.71 341.609 323.35 139.237 75.1 103.915 135.7 83.68 206.19 83.68 281.39c0 142.36 72.437 267.95 182.543 341.53-67.262-2.13-130.535-20.59-185.852-51.32-.039 1.71-.039 3.42-.039 5.16 0 198.803 141.441 364.635 329.145 402.342-34.426 9.375-70.676 14.395-108.098 14.395-26.441 0-52.145-2.578-77.203-7.364 52.215 163.008 203.75 281.649 383.304 284.946-140.429 110.062-317.351 175.66-509.597 175.66A834.715 834.715 0 0 1 0 1441.001c181.586 116.418 397.27 184.359 628.988 184.359 754.732 0 1167.462-625.238 1167.462-1167.47 0-17.79-.41-35.48-1.2-53.08 80.18-57.86 149.74-130.12 204.75-212.41" fill="#00aced"/></svg>